<?xml version="1.0" encoding="UTF-8" standalone="no"?>
<!-- Created with Inkscape (http://www.inkscape.org/) -->

<svg
   version="1.1"
   id="svg1"
   width="1437.4908"
   height="1488.4991"
   viewBox="0 0 1437.4908 1488.4991"
   xmlns="http://www.w3.org/2000/svg"
   xmlns:svg="http://www.w3.org/2000/svg">
  <defs
     id="defs1" />
  <g
     id="g1"
     transform="translate(-527.51143,2391.5838)">
    <path
       style="fill:#000000"
       d="m 846.03519,-903.42818 c -0.24173,-0.2147 -4.87492,-0.6824 -10.29598,-1.0395 -26.47218,-1.7435 -61.24633,-9.2157 -89.64353,-19.2623 -24.97028,-8.8342 -68.46299,-32.609 -87.75818,-47.9721 -54.08174,-43.06052 -90.81253,-93.63932 -111.02402,-152.88162 -12.03218,-35.2677 -16.73456,-58.8538 -19.13965,-96 -1.32433,-20.4541 -0.4734,-835.2366 0.89032,-852.5 1.39452,-17.6533 4.56849,-39.7689 7.67815,-53.5 1.37014,-6.05 2.73679,-12.125 3.037,-13.5 1.58427,-7.2561 8.94079,-29.9389 12.97284,-40 5.17874,-12.9223 14.56693,-32.1118 20.43942,-41.7781 2.14727,-3.5345 3.90412,-6.6134 3.90412,-6.842 0,-0.2286 4.06015,-6.539 9.02255,-14.0229 24.03912,-36.2543 59.2239,-70.9009 96.97745,-95.4941 10.87189,-7.0821 30.06078,-17.63 42.66071,-23.45 5.41161,-2.4997 11.63929,-5.3823 13.83929,-6.4059 6.24563,-2.9057 26.65456,-9.4783 41.5,-13.3647 13.29406,-3.4803 27.32064,-6.164 46,-8.8011 7.81947,-1.1039 81.93972,-1.3412 419.00002,-1.3412 384.4477,0 410.2953,0.1071 422.5,1.7507 19.0904,2.571 31.6769,5.0141 45,8.7349 16.4066,4.582 26.4832,7.7955 33,10.5239 1.65,0.6908 7.05,2.9403 12,4.9989 31.6162,13.1483 66.3189,35.1448 92.7098,58.7646 14.1959,12.7053 37.5539,37.7534 44.1479,47.3424 3.0523,4.4386 12.4524,17.6959 13.3903,18.8846 2.5687,3.2559 10.9728,17.8588 16.9777,29.5 22.488,43.596 35.3899,91.5815 38.2169,142.1385 1.2299,21.9959 1.3098,839.2415 0.084,855.4372 -1.1289,14.9109 -2.7796,29.9457 -3.9992,36.4243 -4.73,25.1271 -9.8958,43.8922 -17.2056,62.5 -6.6531,16.936 -22.2383,47.3624 -30.9922,60.5048 -33.4276,50.1856 -82.9026,93.32012 -135.5666,118.19312 -26.6861,12.6037 -47.7994,19.5657 -81.2626,26.7957 -6.6497,1.4368 -26.8775,3.9076 -40,4.886 -10.9913,0.8195 -808.15034,1.584 -809.06051,0.7759 z m 220.06051,-228.51142 c 23.4323,-4.7573 29.5524,-6.669 41.5,-12.9636 11.4191,-6.0161 27.4817,-19.5691 30.3029,-25.5685 4.6005,-9.7832 4.6967,-10.1887 4.6518,-19.612 -0.042,-8.868 -0.2738,-9.9273 -3.4812,-15.9224 -4.8801,-9.1217 -11.8,-16.2186 -22.8683,-23.4529 -14.8327,-9.6949 -29.1583,-14.7277 -54.5569,-19.1669 -21.769,-3.8048 -54.5182,-3.1112 -58.5645,1.2403 -2.817,3.0295 -6.98382,26.6828 -6.98382,39.6441 0,8.4851 3.69084,15.5782 11.31042,21.7365 7.8881,6.3754 12.0808,7.3623 31.1896,7.3419 17.3453,-0.018 28.0277,-1.9446 39.2473,-7.0766 5.7255,-2.6189 6.1318,-3.2645 3.5027,-5.5658 -1.8817,-1.647 -11.25,-5.9742 -11.25,-5.1963 0,0.2582 -1.35,-0.2287 -3,-1.0819 -1.65,-0.8532 -3,-1.3706 -3,-1.1496 0,0.2209 -2.7371,-0.1695 -6.0824,-0.8676 -3.3454,-0.6981 -12.0079,-1.3307 -19.25,-1.4058 -15.4807,-0.1606 -18.8506,-1.019 -21.6254,-5.5086 -3.9009,-6.3118 -1.7646,-13.6432 5.1248,-17.5876 4.0641,-2.3269 5.1705,-2.4729 17.833,-2.3543 15.3516,0.1439 27.0795,2.0112 41,6.528 16.4314,5.3314 25.5239,9.8299 31.6306,15.649 9.1516,8.7207 9.7153,17.9806 1.6317,26.8023 -3.6454,3.9781 -12.2608,10.3942 -13.9573,10.3942 -0.4591,0 -2.628,0.9641 -4.8198,2.1425 -8.151,4.3821 -21.9549,8.4518 -36.9852,10.904 -7.5811,1.2368 -27.1999,1.49 -33.8671,0.437 -28.17723,-4.4502 -46.08629,-17.8064 -52.0819,-38.8415 -2.98501,-10.4727 -2.59775,-29.5654 0.92368,-45.5394 l 0.74894,-3.3973 -3.2404,0.6481 c -9.43185,1.8863 -29.51514,13.9703 -38.10465,22.9273 -9.38127,9.7826 -13.27399,20.3591 -12.18998,33.1202 0.86551,10.1888 9.80871,23.4494 21.207,31.4449 14.93576,10.4768 39.88198,19.6453 61.60441,22.6415 14.6194,2.0164 49.6614,1.2634 62.5,-1.3432 z m -164.12497,-87.7692 c 2.31272,-5.0759 13.75391,-17.9673 21.15344,-23.8347 15.6047,-12.3736 42.90114,-24.5351 61.97151,-27.6103 2.475,-0.3991 8.775,-1.5208 14,-2.4927 7.15302,-1.3305 14.93502,-1.7824 31.50002,-1.8293 43.477,-0.1229 74.2701,7.7584 102.5,26.2342 8.6123,5.6366 24,20.2387 24,22.7748 0,0.7607 0.3954,1.3831 0.8787,1.3831 0.4832,0 1.4316,1.3351 2.1075,2.9668 0.6759,1.6318 1.8008,3.4415 2.4997,4.0215 0.9374,0.778 0.7689,-1.6396 -0.6423,-9.2168 -2.0541,-11.0291 -5.2625,-32.2861 -6.8329,-45.2715 -0.5321,-4.4 -2.3356,-17.45 -4.0077,-29 -1.6722,-11.55 -3.7099,-26.4 -4.5282,-33 -0.8183,-6.6 -1.6879,-13.575 -1.9325,-15.5 -0.2446,-1.925 -0.9301,-8.45 -1.5233,-14.5 -0.5933,-6.05 -1.7164,-15.95 -2.4959,-22 -0.7795,-6.05 -1.734,-14.825 -2.1212,-19.5 -0.3871,-4.675 -0.8006,-9.625 -0.9189,-11 -0.1182,-1.375 -0.5211,-6.55 -0.8953,-11.5 -0.3742,-4.95 -0.867,-10.125 -1.0952,-11.5 -0.2282,-1.375 -0.685,-6.55 -1.0151,-11.5 -0.3301,-4.95 -0.7727,-10.8 -0.9836,-13 -0.2109,-2.2 -0.6533,-9.175 -0.9832,-15.5 -0.3299,-6.325 -1.0127,-17.35 -1.5173,-24.5 -0.5046,-7.15 -1.165,-20.2 -1.4677,-29 -0.9149,-26.6005 -1.7314,-44.9833 -2.0118,-45.2924 -0.1459,-0.1608 -2.8521,0.8517 -6.014,2.25 -3.1618,1.3983 -6.2198,2.5424 -6.7955,2.5424 -0.5758,0 -1.7641,0.6491 -2.6407,1.4424 -2.0817,1.884 -23.4727,9.7131 -28.0305,10.2592 -1.9432,0.2328 -4.93,0.8584 -6.6372,1.3903 -4.7004,1.4641 -21.8502,2.943 -41.6909,3.595 -15.9447,0.524 -26.9843,-0.1313 -38.70502,-2.2974 -1.375,-0.2542 -4.75,-0.8708 -7.5,-1.3704 -10.37405,-1.8845 -31.2271,-8.0213 -39,-11.4772 -9.52799,-4.2361 -13.52814,-5.6992 -14.6029,-5.3409 -1.31639,0.4388 -1.39144,1.3736 -2.31203,28.799 -0.34154,10.175 -0.85364,21.425 -1.13798,25 -0.8637,10.859 -1.34089,18.8712 -1.96541,33 -0.3282,7.425 -0.77242,14.4 -0.98716,15.5 -0.21473,1.1 -0.66586,6.05 -1.00251,11 -0.7661,11.2646 -3.34992,42.4908 -4.01315,48.5 -1.1083,10.0418 -2.56319,24.3314 -3.97074,39 -0.81804,8.525 -1.75302,17.3 -2.07775,19.5 -0.88881,6.0216 -1.19307,8.4344 -1.89162,15 -0.3511,3.3 -1.25551,10.5 -2.00979,16 -0.75428,5.5 -1.64605,12.925 -1.9817,16.5 -0.33566,3.575 -1.29196,11 -2.12512,16.5 -0.83315,5.5 -2.3718,15.625 -3.41921,22.5 -1.0474,6.875 -2.19651,15.2 -2.55357,18.5 -0.35706,3.3 -1.02945,7.8 -1.4942,10 -1.33046,6.298 -3.86981,22.2683 -3.93535,24.75 -0.0458,1.7326 1.7483,0.5544 2.85524,-1.8751 z m 189.62497,-337.3749 c -0.3399,-0.55 -0.3399,-1.45 0,-2 0.3399,-0.55 -0.1101,-1 -1,-1 -0.9219,0 -1.3256,0.4732 -0.9384,1.0998 0.4901,0.7929 0.1248,0.8027 -1.3095,0.035 -1.094,-0.5856 -2.2309,-0.8229 -2.5264,-0.5274 -1.1588,1.1588 -6.7257,1.4845 -6.7257,0.3934 0,-0.6155 0.45,-0.8409 1,-0.501 0.55,0.3399 1,0.2216 1,-0.263 0,-0.4846 1.8,-0.8138 4,-0.7317 2.2,0.082 4,-0.2229 4,-0.6779 0,-1.0847 2.2941,-0.6076 3.2347,0.6726 0.4148,0.5647 0.7413,0.2382 0.75,-0.75 0.01,-0.9625 0.6903,-1.75 1.5153,-1.75 0.825,0 1.5,0.675 1.5,1.5 0,0.825 -0.5625,1.3875 -1.25,1.25 -0.6875,-0.1375 -1.1264,0.3459 -0.9752,1.0743 0.1663,0.8019 -0.1966,1.0331 -0.92,0.586 -0.8147,-0.5035 -0.9916,-0.2091 -0.5561,0.9257 0.6999,1.8241 0.1836,2.2534 -0.7987,0.664 z m 6,-4 c -0.3505,-0.5672 0.4896,-1 1.941,-1 1.4074,0 2.559,0.45 2.559,1 0,0.55 -0.8735,1 -1.941,1 -1.0675,0 -2.2191,-0.45 -2.559,-1 z m 6.25,-2.6623 c 0.6875,-0.2774 1.8125,-0.2774 2.5,0 0.6875,0.2774 0.125,0.5044 -1.25,0.5044 -1.375,0 -1.9375,-0.227 -1.25,-0.5044 z m -237.3567,98.4123 c 5.08931,-10.2387 12.33642,-21.0779 23.10668,-34.5598 12.10467,-15.1523 12.25057,-15.3985 12.85398,-21.6902 0.31649,-3.3 0.80932,-9.825 1.09519,-14.5 1.29044,-21.1031 1.62621,-26.3827 2.54394,-40 1.89436,-28.1082 1.425,-31.0443 -4.10675,-25.6903 -1.3125,1.2703 -6.43636,5.192 -11.38636,8.7147 -4.95,3.5228 -9.45,6.8955 -10,7.495 -0.55,0.5994 -6.625,5.5597 -13.5,11.0228 -18.66672,14.8331 -51.28914,48.1673 -59.16696,60.4578 -0.88133,1.375 -2.55431,3.5814 -3.71773,4.903 -2.72531,3.096 -2.68172,4.266 0.13469,3.6152 14.4811,-3.3461 28.38393,-5.5699 44,-7.0381 l 6.75,-0.6347 0.0675,4.3273 c 0.0371,2.38 0.21794,5.6773 0.40182,7.3273 0.18389,1.65 0.61469,8.85 0.95735,16 0.77146,16.0977 2.69924,31.5 3.9426,31.5 0.23762,0 2.94844,-5.0625 6.02406,-11.25 z m 525.6067,6.2273 c 15.255,-1.5866 17.9813,-1.9376 28,-3.6045 5.225,-0.8693 10.4,-1.7082 11.5,-1.8642 1.1,-0.156 4.925,-0.9958 8.5,-1.8663 3.575,-0.8706 9.65,-2.2868 13.5,-3.1471 9.6911,-2.1658 39.2323,-11.8154 49.5,-16.1693 12.0706,-5.1183 34.6812,-16.6723 42.6935,-21.8163 18.0098,-11.5624 21.5234,-14.0138 31.3065,-21.8422 13.5239,-10.8218 32.4723,-28.9434 39.1896,-37.4797 2.8944,-3.6782 5.5009,-6.9127 5.7922,-7.1877 0.2913,-0.275 1.8607,-2.3 3.4876,-4.5 1.627,-2.2 3.5752,-4.633 4.3295,-5.4066 1.8927,-1.9412 16.667,-24.0709 20.3023,-30.4098 2.4416,-4.2573 14.4934,-28.5615 17.9425,-36.1836 0.4978,-1.1 1.8486,-4.7 3.0018,-8 1.1533,-3.3 2.4993,-6.9 2.9911,-8 5.1175,-11.4443 14.9217,-52.0153 17.3992,-72 2.1015,-16.9516 2.9315,-63.082 1.3315,-74 -0.4031,-2.75 -0.8531,-5.9 -1,-7 -0.147,-1.1 -0.8181,-2.3533 -1.4912,-2.7851 -0.6896,-0.4423 -8.7665,1.38 -18.5,4.1741 -9.5019,2.7276 -27.6261,7.4514 -40.2761,10.4973 -12.65,3.046 -25.7,6.254 -29,7.1291 -3.3,0.875 -11.175,2.8816 -17.5,4.4592 -59.0794,14.7355 -90.4668,22.6772 -101,25.555 -6.875,1.8784 -21.05,5.4552 -31.5,7.9485 -10.45,2.4933 -22.15,5.4111 -26,6.484 -9.304,2.5928 -22.245,5.8605 -43.6749,11.0282 l -17.6748,4.2622 -3.0622,6.2201 c -4.7448,9.6381 -12.5018,16.9092 -21.9412,20.567 -3.1058,1.2034 -7.1815,2.8672 -9.0571,3.6972 -5.5379,2.4506 -26.7401,2.8927 -37.0898,0.7733 -9.4697,-1.9392 -20.6882,-7.1143 -25.7533,-11.8801 -4.0183,-3.7809 -11.2467,-14.6367 -11.2467,-16.8907 0,-1.8452 -1.5833,-3.0621 -4.5092,-3.4659 -1.105,-0.1525 -6.505,-1.8951 -12,-3.8725 -5.4949,-1.9773 -13.5908,-4.8708 -17.9908,-6.4299 -4.4,-1.5591 -12.5,-4.4891 -18,-6.511 -18.0399,-6.6319 -39.4716,-13.8218 -39.9032,-13.3867 -0.2327,0.2347 -0.5748,5.0776 -0.76,10.762 l -0.3368,10.3354 5,1.9324 c 5.1945,2.0076 31.6389,11.4779 49,17.5478 23.6202,8.2583 22.8885,7.8711 28.8767,15.2826 10.1114,12.5146 20.7949,20.0633 35.3002,24.9419 24.159,8.1255 53.5414,5.2488 74.1292,-7.2576 5.334,-3.2402 16.2069,-13.4161 21.1473,-19.7916 2.7936,-3.6051 3.0881,-3.6926 68.0466,-20.2169 11.825,-3.008 26.9,-6.8849 33.5,-8.6152 21.2276,-5.5652 25.9176,-6.7077 30.25,-7.369 4.1319,-0.6307 4.2498,-0.572 4.2424,2.1131 -0.038,14.0433 -7.6479,39.4421 -16.7062,55.7618 -11.3017,20.3614 -20.1794,30.9725 -38.9233,46.5228 -18.1084,15.0232 -40.6373,26.0678 -61.8629,30.3278 -4.4,0.8831 -10.25,2.1143 -13,2.736 -3.4242,0.7741 -39.037,1.3789 -113,1.9189 -59.4,0.4337 -108.8092,0.8348 -109.7983,0.8915 -1.6847,0.097 -1.7626,1.2868 -1.2333,18.853 0.3107,10.3125 0.786,21.9 1.0561,25.75 0.2701,3.85 0.7101,13.075 0.9779,20.5 0.2677,7.425 0.705,16.65 0.9717,20.5 0.2666,3.85 0.9434,14.425 1.5038,23.5 0.9417,15.2477 1.5908,22.1641 2.5452,27.1199 0.2054,1.0665 0.46,5.4133 0.566,9.6596 0.1059,4.2463 0.4023,8.283 0.6587,8.9705 0.5897,1.5813 210.1997,1.7928 225.2522,0.2273 z m -333,-124.4342 c 1.925,-0.3543 6.2,-1.1021 9.5,-1.6616 9.7716,-1.657 24.5337,-5.614 31.5,-8.4437 8.3853,-3.4062 24.1615,-11.2536 25.6644,-12.766 1.3139,-1.3223 2.3808,-65.959 1.1097,-67.2306 -0.3992,-0.3994 -1.2992,-0.259 -2,0.3119 -2.1089,1.7182 -18.7127,8.5351 -29.7741,12.2242 -32.1291,10.7152 -62.5644,12.6425 -101.00002,6.3958 -15.91572,-2.5867 -38.77096,-9.725 -51.21676,-15.9963 -8.5093,-4.2878 -8.18439,-5.0238 -7.44876,16.8732 0.35568,10.5875 0.65093,25.6466 0.65611,33.4647 l 0.009,14.2147 11.25,5.4273 c 13.90142,6.7064 34.24858,13.2078 50.75,16.2157 11.11063,2.0253 15.00083,2.2417 35.00003,1.9468 12.375,-0.1825 24.075,-0.6218 26,-0.9761 z m -152.03536,-68.5431 c -0.41421,-4.675 -1.04507,-16.2114 -1.40191,-25.6365 -0.35684,-9.4251 -1.06356,-23.1501 -1.57048,-30.5 -0.50693,-7.3499 -0.93757,-15.0015 -0.95698,-17.0034 -0.0292,-3.0106 -1.53885,-5.6041 -8.73138,-15 -4.78286,-6.2481 -8.97252,-11.5851 -9.31036,-11.8601 -2.81356,-2.2902 -20.44737,-30.5477 -22.93347,-36.75 -0.7165,-1.7875 -1.63356,-3.25 -2.03792,-3.25 -0.99059,0 -3.90771,30.4598 -4.40541,46 l -0.40032,12.5 -7.85821,-0.3427 c -12.59769,-0.5494 -34.38277,-4.2531 -41.74691,-7.0975 -1.58878,-0.6137 -3.10513,-0.8993 -3.36967,-0.6348 -1.43897,1.439 23.12543,31.0803 37.81649,45.6323 19.50596,19.3213 64.96791,55.32 67.05075,53.0936 0.33489,-0.358 0.26999,-4.4759 -0.14422,-9.1509 z m 149.53536,-25.4826 c 4.95,-0.719 12.9878,-2.4796 17.8618,-3.9123 4.8741,-1.4328 9.5235,-2.6051 10.3321,-2.6051 2.4084,0 16.3835,-5.0745 22.4298,-8.1445 3.093,-1.5705 6.243,-2.8601 7,-2.8658 0.7569,-0.01 3.4013,-1.1078 5.8763,-2.449 2.475,-1.3413 5.5125,-2.9005 6.75,-3.4649 1.518,-0.6924 2.2689,-1.929 2.3081,-3.801 0.3613,-17.2401 4.0598,-76.2528 6.5039,-103.7748 0.8303,-9.35 1.7412,-19.7 2.0242,-23 0.283,-3.3 0.9415,-10.05 1.4632,-15 0.5217,-4.95 1.6318,-16.425 2.4669,-25.5 2.2623,-24.585 5.5618,-51.3442 13.5633,-110 0.5627,-4.125 1.6655,-11.325 2.4507,-16 0.7851,-4.675 1.6272,-9.85 1.8712,-11.5 0.2441,-1.65 1.6636,-9.0608 3.1546,-16.4685 2.4939,-12.3912 2.6249,-14.1908 1.6378,-22.5 -1.3256,-11.1581 -1.2305,-10.7462 -4.1614,-18.0315 -3.3508,-8.3288 -10.7429,-18.6052 -17.9643,-24.9736 -1.8874,-1.6645 -4.1374,-3.7506 -5,-4.6357 -5.2519,-5.3895 -21.7839,-14.525 -35.0682,-19.3784 -19.2338,-7.0271 -38.6517,-10.4561 -63.3407,-11.1854 -22.2967,-0.6587 -31.5231,0.2223 -49.65932,4.7419 -30.30728,7.5525 -48.5833,17.3576 -60.85085,32.6464 -6.18383,7.7068 -8.24848,14.2867 -8.37406,26.6876 -0.12321,12.167 2.84841,19.2103 11.3268,26.8469 8.53842,7.6907 10.82835,9.2891 19.52741,13.6304 16.51171,8.2402 21.75579,10.1767 36.8707,13.6155 3.85,0.8759 8.8,2.0537 11,2.6173 2.20002,0.5636 13.22502,1.2692 24.50002,1.5679 17.9702,0.4761 21.9191,0.2861 32,-1.5402 6.325,-1.1459 13.8579,-2.7874 16.7399,-3.6478 5.7194,-1.7074 5.4304,-1.2115 7.2804,-12.4928 0.5863,-3.575 2.002,-9.5956 3.146,-13.3792 3.6994,-12.2345 1.3822,-25.3617 -5.5305,-31.331 -6.5779,-5.6802 -19.005,-10.0245 -31.8936,-11.1494 -19.4151,-1.6945 -34.7647,0.5742 -39.8116,5.8842 -2.5126,2.6436 -2.5291,2.753 -0.75,4.9502 1.0007,1.2357 1.8194,3.0281 1.8194,3.983 0,0.9549 0.7875,2.6835 1.75,3.8413 0.9625,1.1579 2.5241,3.1017 3.4702,4.3197 1.2908,1.6618 2.5388,2.1285 5,1.8696 8.5996,-0.9043 35.5372,-0.2596 39.1072,0.936 9.3263,3.1234 10.217,16.861 1.3339,20.5727 -8.9948,3.7582 -31.8265,5.7659 -39.6679,3.4881 -1.9214,-0.5581 -5.5184,-1.2514 -7.9934,-1.5406 -2.475,-0.2892 -5.2875,-0.7629 -6.25,-1.0526 -2.1391,-0.6439 -2.3218,-2.392 -0.25,-2.392 1.9114,0 1.9246,-1.4027 0.028,-2.9768 -1.2962,-1.0758 -1.2962,-1.3978 0,-2.6939 0.8096,-0.8097 1.4721,-1.89 1.4721,-2.4007 0,-1.3698 -1.7525,-1.1289 -2.3377,0.3214 -0.4936,1.2231 -1.0801,-5.4325 -0.7139,-8.1003 0.1019,-0.7427 -0.2247,-1.0969 -0.7259,-0.7872 -0.50124,0.3098 -0.76824,4.6912 -0.59336,9.7365 l 0.31796,9.1733 -4.73243,-0.5605 c -5.20762,-0.6167 -24.60538,-6.8491 -30.18298,-9.6975 -6.30487,-3.2198 -15.92541,-10.8849 -19.01504,-15.15 -5.51846,-7.618 -3.68802,-15.2498 5.75425,-23.9917 10.48227,-9.7047 25.84561,-15.9756 51.5588,-21.0449 15.4178,-3.0395 41.9627,-3.0501 58.6703,-0.023 20.5078,3.7153 31.0969,6.9136 43.1329,13.0281 23.9275,12.1554 34.6197,25.48 36.3699,45.3241 2.0162,22.8604 -24.5991,46.3113 -65.5028,57.7148 -39.5261,11.0195 -91.41057,6.6437 -128.5,-10.8373 -4.4,-2.0738 -8.675,-4.0624 -9.5,-4.419 -10.847,-4.6894 -30.66426,-22.6129 -35.73702,-32.322 -2.48278,-4.7519 -4.263,-6.6381 -4.263,-4.5168 0,0.4269 1.37788,8.6394 3.06195,18.25 2.67269,15.2524 4.42545,25.8672 6.43553,38.9738 0.29522,1.925 0.9824,6.2 1.52706,9.5 1.00388,6.0823 4.25354,30.3798 6.01851,45 0.53117,4.4 1.19502,9.8 1.47522,12 1.55729,12.2272 7.06618,67.4302 8.08325,81 0.24734,3.3 0.87183,9.6 1.38777,14 0.51593,4.4 1.18385,11.825 1.48427,16.5 0.30042,4.675 1.18703,17.275 1.97024,28 2.04465,27.9983 2.43232,34.0073 3.09672,48 0.49242,10.3708 0.8643,16.5876 1.39489,23.3195 0.10139,1.2864 22.31293,11.5289 34.51741,15.9172 12.50912,4.4978 23.37667,7.3556 35.0472,9.2162 10.5243,1.678 41.6314,1.7158 53,0.064 z M 1000.6058,-2035.1 c 0.3454,-0.559 1.047,-0.7574 1.559,-0.441 1.387,0.8573 1.1284,1.4573 -0.6281,1.4573 -0.8575,0 -1.2764,-0.4573 -0.9309,-1.0163 z m 363.2535,272.068 c 2.3877,-1.3041 19.8169,-6.2372 37.2364,-10.5393 7.975,-1.9696 20.8,-5.1961 28.5,-7.1699 7.7,-1.9738 17.375,-4.4138 21.5,-5.4221 4.125,-1.0084 10.875,-2.7148 15,-3.7919 41.4052,-10.8122 63.2852,-16.3306 97.5,-24.5905 10.45,-2.5228 21.025,-5.1827 23.5,-5.9109 2.475,-0.7282 22.275,-5.7306 44,-11.1164 21.725,-5.3858 40.0701,-10.3151 40.7668,-10.9541 1.3065,-1.1981 -2.1405,-4.8035 -25.2316,-26.3916 l -8.9153,-8.3351 -4.56,0.6656 c -3.8043,0.5554 -18.2286,4.1158 -56.5599,13.9611 -6.2089,1.5948 -20.0356,5.744 -28,8.4026 -18.3329,6.1196 -48.3345,16.9177 -53,19.0757 -1.1,0.5088 -4.925,2.1271 -8.5,3.5962 -3.575,1.4692 -8.3,3.4759 -10.5,4.4594 -2.2,0.9835 -5.8,2.5768 -8,3.5406 -13.8318,6.0598 -37.9877,17.8699 -48.5,23.7123 -9.2202,5.1243 -25.6636,14.5485 -30.5,17.4805 -2.75,1.6672 -9.05,5.3948 -14,8.2835 -10.4236,6.0832 -15.5,9.7 -15.5,11.0435 0,1.2117 1.5458,1.212 3.7636,8e-4 z m -114.7646,-3.8017 c -6e-4,-0.4125 -2.1831,-1.9755 -4.85,-3.4733 -2.667,-1.4979 -9.0298,-5.4687 -14.1397,-8.824 -5.11,-3.3554 -15.64,-9.5055 -23.4001,-13.6669 -7.7601,-4.1614 -16.5842,-8.9839 -19.6092,-10.7166 -3.025,-1.7326 -6.9625,-3.7491 -8.75,-4.4811 -1.7875,-0.7319 -3.25,-1.6541 -3.25,-2.0493 0,-1.0625 -7.8933,-3.4789 -8.7067,-2.6654 -0.3833,0.3832 -0.7185,4.1439 -0.7451,8.357 l -0.048,7.6603 3.5,1.2558 c 1.925,0.6907 15.2,5.6209 29.5,10.9559 14.3,5.3351 29.375,10.9295 33.5,12.4322 4.125,1.5026 9.075,3.4419 11,4.3096 3.8494,1.735 6.0005,2.0598 5.999,0.9058 z m 78.1211,-20.9085 c 5.7089,-6.9622 13.3558,-16.2997 16.9929,-20.75 3.6372,-4.4503 12.9689,-14.6165 20.7371,-22.5915 7.7683,-7.975 14.1634,-14.725 14.2114,-15 0.098,-0.5628 12.8319,-11.6906 22.8354,-19.9555 3.6317,-3.0006 7.1977,-6.0381 7.9245,-6.75 0.7268,-0.712 1.6268,-1.3031 2,-1.3137 0.3732,-0.011 2.4786,-1.6222 4.6786,-3.5816 9.8504,-8.7729 30.3615,-22.9992 49.5,-34.3329 6.875,-4.0713 14.075,-8.3684 16,-9.549 3.7605,-2.3065 53.1719,-26.9152 59.6152,-29.6906 21.4589,-9.2434 61.1232,-23.7561 73.3848,-26.8505 4.675,-1.1799 8.6743,-2.3189 8.8872,-2.5313 0.4969,-0.4953 -5.2356,-5.8579 -9.2754,-8.677 -1.7115,-1.1944 -3.3368,-2.4344 -3.6118,-2.7558 -0.275,-0.3213 -4.1,-3.4768 -8.5,-7.0121 -4.4,-3.5353 -8.225,-6.6883 -8.5,-7.0067 -0.275,-0.3184 -3.2,-2.7244 -6.5,-5.3468 -6.0882,-4.8381 -9.0033,-7.1892 -20.0197,-16.1465 -3.3821,-2.75 -14.2113,-11.3959 -24.0648,-19.213 -9.8535,-7.8172 -18.6015,-14.7922 -19.44,-15.5 -4.4288,-3.7385 -14.1526,-11.6597 -17.5383,-14.287 -3.8111,-2.9573 -8.972,-7.2742 -12.9189,-10.8061 -1.1101,-0.9933 -7.8683,-6.3025 -15.0183,-11.7981 -7.15,-5.4956 -14.9875,-11.6579 -17.4166,-13.6939 -2.4291,-2.036 -5.3541,-4.3488 -6.5,-5.1395 -1.1459,-0.7906 -4.4682,-3.4518 -7.3829,-5.9137 l -5.2994,-4.4762 -6.7006,1.2076 c -3.6853,0.6642 -9.4005,1.8354 -12.7005,2.6028 -3.3,0.7674 -10.275,2.3497 -15.5,3.5162 -5.225,1.1666 -14,3.4845 -19.5,5.1511 -5.5,1.6665 -12.0444,3.5992 -14.5431,4.2948 -2.4988,0.6957 -6.0988,1.9663 -8,2.8237 -1.9013,0.8573 -5.2569,2.1123 -7.4569,2.7888 -2.2,0.6765 -6.7,2.4538 -10,3.9494 -3.3,1.4957 -7.125,3.0706 -8.5,3.4998 -3.0866,0.9635 -21.2504,10.3548 -26.8678,13.8916 -2.2727,1.431 -6.0033,3.8392 -8.2901,5.3517 -2.2869,1.5125 -5.4736,3.5489 -7.0817,4.5253 -4.4142,2.6804 -22.7319,16.6261 -27.1463,20.6674 -21.3887,19.5803 -42.1715,44.9557 -52.1865,63.7185 l -4.89,9.1611 1.2801,4.8389 c 0.704,2.6613 4.7646,11.8138 9.0236,20.3388 9.1329,18.2807 46.7404,92.3495 60.6746,119.5 5.3632,10.45 12.667,24.85 16.2307,32 8.2091,16.4705 15.4096,29.5 16.3024,29.5 0.3802,0 5.3622,-5.6963 11.0711,-12.6585 z m 30.4311,2.6911 c 11.5536,-8.4076 37.8357,-25.4233 47.9488,-31.0432 19.7196,-10.9584 52.4192,-27.1829 66.431,-32.9609 3.7146,-1.5318 8.2872,-3.4779 10.1614,-4.3248 13.01,-5.8785 62.5193,-23.1685 86.9076,-30.3505 15.848,-4.667 63.9994,-16.3896 75.1033,-18.2841 10.217,-1.7432 12.8879,-2.5163 11.8134,-3.4192 -0.2292,-0.1926 -4.9313,-3.4882 -10.4492,-7.3236 -5.5178,-3.8353 -10.9178,-7.7027 -12,-8.594 -4.1247,-3.3976 -30.8625,-22.3395 -34.6961,-24.5798 l -4.0172,-2.3475 -13.1271,5.1696 c -20.9908,8.2665 -26.7061,10.6662 -36.8813,15.4852 -5.2725,2.4971 -10.0722,4.5402 -10.6661,4.5402 -0.5938,0 -1.0797,0.45 -1.0797,1 0,0.55 -0.5139,1 -1.1421,1 -1.3622,0 -33.633,16.0534 -39.3579,19.579 -2.2,1.3549 -4.675,2.7521 -5.5,3.1049 -0.825,0.3529 -2.8407,1.5808 -4.4793,2.7288 -3.4645,2.4273 -4.5806,3.0908 -11.7184,6.9661 -2.9163,1.5833 -6.9421,4.1708 -8.9462,5.75 -2.0042,1.5792 -3.8951,2.8712 -4.2021,2.8712 -0.307,0 -3.5732,2.1375 -7.2581,4.75 -3.685,2.6125 -9.8941,6.9509 -13.7979,9.6408 -3.9039,2.69 -7.323,5.1766 -7.598,5.5259 -0.275,0.3492 -2.525,2.1867 -5,4.0833 -2.475,1.8966 -4.725,3.685 -5,3.9742 -0.275,0.2892 -2.75,2.3072 -5.5,4.4844 -2.75,2.1772 -6.053,4.8772 -7.3399,6 -7.254,6.3285 -37.9332,36.5696 -42.3363,41.7316 -2.0219,2.3704 -7.0844,8.2098 -11.25,12.9764 -11.1618,12.7722 -10.4016,13.0572 4.9774,1.866 z m -94.9797,6.2174 c -0.419,-0.4125 -5.7815,-6.1384 -11.9167,-12.7242 -17.0928,-18.3483 -25.1602,-26.0725 -36.5822,-35.0258 -1.4033,-1.1 -3.2542,-2.675 -4.1132,-3.5 -0.859,-0.825 -5.9421,-4.65 -11.2958,-8.5 -5.3537,-3.85 -12.6597,-9.1345 -16.2357,-11.7434 -3.5759,-2.6088 -7.756,-5.392 -9.289,-6.1848 l -2.7875,-1.4414 -0.3384,5.1848 c -0.1862,2.8517 -0.3777,7.592 -0.4257,10.5342 l -0.087,5.3493 6.5,3.4949 c 14.3384,7.7093 33.5193,18.7742 33.8333,19.5174 0.1833,0.4339 0.8046,0.789 1.3806,0.789 0.5759,0 3.2395,1.575 5.9189,3.5 2.6795,1.925 5.0506,3.5 5.269,3.5 0.3722,0 9.9052,6.1073 12.0982,7.7506 0.55,0.4122 3.025,2.0994 5.5,3.7494 4.3187,2.8791 18.4242,13.5191 20.5,15.4634 1.1809,1.106 3.1856,1.3834 2.0715,0.2866 z m 8.6162,-33.3829 c -8.7512,-17.2519 -23.6947,-46.6671 -33.2078,-65.3671 -9.513,-18.7 -18.617,-36.7 -20.231,-40 -1.614,-3.3 -5.681,-11.625 -9.0378,-18.5 -3.3567,-6.875 -7.5347,-14.975 -9.2844,-18 -1.7497,-3.025 -5.4609,-9.9554 -8.2471,-15.4009 -4.1351,-8.0821 -5.1519,-9.4599 -5.5348,-7.5 -4.2185,21.5924 -12.988,89.0825 -12.1519,93.5214 0.1947,1.0338 0.3885,2.442 0.4306,3.1295 0.042,0.6875 0.5155,1.25 1.0521,1.25 0.9426,0 15.6194,9.4403 25.1907,16.203 8.8416,6.2471 28.1649,21.311 35.2413,27.4731 11.0987,9.6647 30.8939,31.0554 46.9454,50.7288 2.1191,2.5974 4.0539,4.5215 4.2996,4.2759 0.2456,-0.2456 -6.7136,-14.5618 -15.4649,-31.8137 z m -682.68772,-336.8671 c 0.33992,-0.55 0.14148,-1 -0.44098,-1 -0.58246,0 -1.05902,0.45 -1.05902,1 0,0.55 0.19844,1 0.44098,1 0.24254,0 0.7191,-0.45 1.05902,-1 z m 30.34582,-53.8573 c -0.0455,-0.3535 0.0269,-0.9802 0.16076,-1.3927 0.41035,-1.2643 0.73735,-2.6986 0.86842,-3.809 0.0688,-0.5825 0.527,-0.8106 1.01833,-0.5069 0.49133,0.3036 1.17952,-0.5882 1.52931,-1.9819 0.38457,-1.5322 1.08081,-2.2591 1.76119,-1.8386 0.66137,0.4088 0.8485,0.2477 0.45395,-0.3907 -0.36918,-0.5973 0.32164,-1.7815 1.53516,-2.6315 1.21352,-0.8499 1.96002,-1.7918 1.65888,-2.0929 -0.83347,-0.8335 -8.65421,7.348 -9.39193,9.8251 -0.35648,1.197 -1.25549,3.1413 -1.99781,4.3207 -1.22052,1.9391 -1.16614,2.0963 0.56837,1.6427 1.05491,-0.2758 1.88083,-0.7908 1.83537,-1.1443 z m 1251.1542,-8.5837 c 0,-0.2425 -0.45,-0.7191 -1,-1.059 -0.55,-0.3399 -1,-0.1415 -1,0.441 0,0.5825 0.45,1.059 1,1.059 0.55,0 1,-0.1984 1,-0.441 z m 4.1833,-2.7757 c -0.7175,-0.7175 -1.1833,-0.7766 -1.1833,-0.15 0,1.3348 1.1826,2.5174 1.85,1.85 0.2842,-0.2841 -0.016,-1.0491 -0.6667,-1.7 z m -1252.68332,-2.7833 c 0.88345,-1.7084 1.10977,-3 0.52568,-3 -0.56412,0 -1.02568,0.6891 -1.02568,1.5314 0,0.8423 -0.675,1.7904 -1.5,2.107 -1.66706,0.6397 -2.05035,2.3616 -0.52568,2.3616 0.53588,0 1.67243,-1.35 2.52568,-3 z m 1244.30692,-1.5264 c -0.3079,-0.3079 -0.8671,0.2471 -1.2426,1.2333 -0.5427,1.4252 -0.4278,1.54 0.5598,0.5598 0.6834,-0.6784 0.9907,-1.4853 0.6828,-1.7931 z m 4.0992,-1.0868 c -0.6551,-0.7893 -1.4645,-1.1376 -1.7986,-0.774 -0.3341,0.3635 -0.042,0.8629 0.6487,1.1095 0.691,0.2467 0.9589,0.9296 0.5955,1.5176 -0.4,0.6473 -0.1861,0.7758 0.5423,0.3256 0.9315,-0.5757 0.9342,-1.0675 0.012,-2.1787 z m -1238.19415,-2.1368 c 0.35707,-0.9625 1.54009,-2.5403 2.62894,-3.5063 1.08886,-0.966 1.74248,-1.9936 1.45249,-2.2836 -0.28998,-0.29 -1.93712,1.0785 -3.66032,3.0411 -2.21834,2.5266 -3.13308,3.0716 -3.13308,1.8669 0,-0.9358 -0.28059,-1.4208 -0.62354,-1.0779 -0.88489,0.8849 0.35139,3.7098 1.62354,3.7098 0.58452,0 1.35491,-0.7875 1.71197,-1.75 z m -7.17085,-0.3165 c 1.07627,-1.7415 -0.14952,-2.1103 -1.52106,-0.4577 -0.78875,0.9504 -0.86462,1.5242 -0.20152,1.5242 0.58488,0 1.36004,-0.4799 1.72258,-1.0665 z m 1238.4589,0.066 c 0,-0.55 -0.45,-1 -1,-1 -0.55,0 -1,0.45 -1,1 0,0.55 0.45,1 1,1 0.55,0 1,-0.45 1,-1 z m 5.1223,-2.1985 c -0.4473,-1.2092 -1.4045,-2.3956 -2.1272,-2.6364 -0.891,-0.297 -1.1016,0.115 -0.6544,1.2803 0.3626,0.945 0.6593,2.1314 0.6593,2.6364 0,0.505 0.6605,0.9182 1.4678,0.9182 1.0919,0 1.2595,-0.563 0.6545,-2.1985 z m -1239.99823,-4.0682 c -0.98762,-0.9802 -1.10248,-0.8654 -0.5598,0.5598 0.37553,0.9863 0.93469,1.5413 1.24258,1.2334 0.30789,-0.3079 6.4e-4,-1.1148 -0.68278,-1.7932 z m 1236.30593,0.38 c 0.3014,-0.4877 -0.087,-1.4134 -0.8623,-2.0571 -1.1524,-0.9564 -1.3119,-0.7942 -0.8724,0.8867 0.594,2.2714 0.9188,2.4906 1.7347,1.1704 z m -8.4501,-2.6375 c -0.6957,-0.8382 -1.4708,-1.3182 -1.7225,-1.0665 -0.6935,0.6935 0.7155,2.5907 1.9241,2.5907 0.6631,0 0.5872,-0.5738 -0.2016,-1.5242 z m -1217.97992,-4.4758 c 0,-0.55 -0.47656,-1 -1.05902,-1 -0.58246,0 -0.7809,0.45 -0.44098,1 0.33992,0.55 0.81648,1 1.05902,1 0.24254,0 0.44098,-0.45 0.44098,-1 z m 6.5,-2 c 0.33992,-0.55 0.14148,-1 -0.44098,-1 -0.58246,0 -1.05902,0.45 -1.05902,1 0,0.55 0.19844,1 0.44098,1 0.24254,0 0.7191,-0.45 1.05902,-1 z m 3.5,-5.2294 c 0,-0.5853 -0.63541,-0.4881 -1.5,0.2294 -0.825,0.6847 -1.5,1.4007 -1.5,1.5911 0,0.1904 0.675,0.087 1.5,-0.2295 0.825,-0.3165 1.5,-1.0325 1.5,-1.591 z m 1205.15122,-0.088 c -0.6236,-0.7514 -0.8003,-1.7344 -0.3925,-2.1845 0.4077,-0.4501 0.1776,-0.4939 -0.5114,-0.097 -0.9366,0.5391 -0.9792,1.232 -0.169,2.746 0.5961,1.1137 1.3364,1.7723 1.6452,1.4634 0.3088,-0.3088 0.051,-1.1762 -0.5723,-1.9276 z m -1213.15122,-1.6822 c 0,-0.55 -0.19844,-1 -0.44098,-1 -0.24254,0 -0.7191,0.45 -1.05902,1 -0.33992,0.55 -0.14148,1 0.44098,1 0.58246,0 1.05902,-0.45 1.05902,-1 z m 11.56467,-2.7686 c -0.37038,-0.3704 -1.09206,-0.011 -1.60373,0.7976 -1.49407,2.3624 -1.10141,3.2543 0.65811,1.4948 0.89047,-0.8905 1.31601,-1.9221 0.94562,-2.2924 z m -8.20177,-0.5783 c -0.0754,-0.8973 0.26943,-1.3803 0.76629,-1.0732 1.22049,0.7543 8.0878,-6.4198 7.32567,-7.6529 -0.33193,-0.5371 -0.23257,-0.9121 0.22081,-0.8333 2.10953,0.3664 3.23994,-0.2524 3.82433,-2.0937 0.79111,-2.4925 4.4939,-2.6976 4.51531,-0.25 0.0124,1.4134 0.18693,1.4789 0.90748,0.3407 1.04921,-1.6574 0.27079,-4.3284 -1.02757,-3.5259 -0.49237,0.3043 -0.89522,0.1248 -0.89522,-0.3988 0,-0.5236 0.77378,-1.2489 1.71952,-1.6118 0.94573,-0.363 1.41157,-0.3519 1.03518,0.024 -0.37638,0.3763 -0.27563,1.4479 0.22388,2.3813 0.6315,1.18 0.32058,2.6633 -1.02048,4.8685 -1.86702,3.0701 -3.9581,4.2173 -3.9581,2.1715 0,-0.55 0.70156,-1 1.55902,-1 0.85746,0 1.27636,-0.4573 0.9309,-1.0163 -0.34546,-0.559 -1.00859,-0.7812 -1.47361,-0.4938 -0.46502,0.2874 -1.0734,-0.043 -1.35195,-0.7337 -0.27856,-0.6909 -0.54199,-0.2988 -0.58541,0.8714 -0.0857,2.308 -2.35621,4.7618 -3.42096,3.6971 -0.36189,-0.3619 -0.65799,0.227 -0.65799,1.3086 0,1.0817 -0.51709,2.4838 -1.14908,3.1158 -0.86544,0.8654 -0.55689,1.1172 1.25,1.0198 1.4455,-0.078 4.53741,-2.2439 7.77881,-5.4491 2.95884,-2.9259 5.77134,-5.3198 6.25,-5.3198 0.47865,0 0.87082,-0.3375 0.87149,-0.75 6.7e-4,-0.4125 1.12799,-2.0602 2.50514,-3.6615 1.37716,-1.6013 2.25214,-3.1633 1.94441,-3.471 -0.30773,-0.3078 -1.01931,0.1024 -1.58127,0.9115 -0.89283,1.2854 -0.97022,1.2817 -0.61328,-0.029 0.228,-0.8372 1.63123,-1.5452 3.17582,-1.6023 1.52204,-0.056 3.05998,-0.5063 3.41765,-1 0.35767,-0.4938 1.55031,-1.4017 2.65031,-2.0178 1.23882,-0.6937 1.88093,-1.9306 1.68714,-3.25 -0.17207,-1.1714 0.15131,-2.1299 0.71862,-2.1299 0.56731,0 0.77245,0.675 0.45587,1.5 -0.31659,0.825 -0.0633,1.5 0.56277,1.5 0.6261,0 1.3964,-0.6724 1.71177,-1.4943 0.31537,-0.8218 0.97625,-1.2453 1.46861,-0.941 0.49237,0.3043 0.89522,0.082 0.89522,-0.4936 0,-0.8701 -2.40838,-0.9312 -7.21862,-0.1829 -0.39523,0.061 -0.4415,0.8993 -0.10282,1.8618 0.49275,1.4003 0.35507,1.5087 -0.689,0.5424 -1.06142,-0.9824 -1.06603,-1.4954 -0.0247,-2.75 1.06398,-1.2821 1.00619,-1.5424 -0.34242,-1.5424 -0.95577,0 -1.62244,0.8218 -1.62244,2 0,1.1 -0.3375,1.9467 -0.75,1.8816 -1.99435,-0.3149 -2.59819,0.2529 -1.25,1.1754 1.23863,0.8476 1.15542,0.9756 -0.47756,0.7347 -1.08766,-0.1604 -2.04391,0.2708 -2.125,0.9583 -0.30153,2.5564 -0.55773,2.7005 -1.33392,0.75 -0.6429,-1.6155 0.25739,-3.0093 4.68304,-7.25 3.01341,-2.8875 5.90476,-5.25 6.42521,-5.25 0.52044,0 0.72381,-0.3599 0.45193,-0.7998 -0.27188,-0.44 0.35991,-1.3334 1.40398,-1.9854 1.62694,-1.016 1.80994,-0.9374 1.28009,0.5498 -0.34003,0.9545 -1.05348,2.2979 -1.58545,2.9854 -0.62332,0.8056 -0.62246,1.25 0.002,1.25 0.5333,0 1.45794,-1.0125 2.05477,-2.25 0.86394,-1.7914 1.09893,-1.8933 1.15281,-0.5 0.0372,0.9625 0.52924,1.75 1.09336,1.75 0.58793,0 0.37453,-1.2592 -0.5,-2.9503 -1.96459,-3.7999 -2.02266,-3.601 1.47474,-5.0497 1.65,-0.6834 3,-1.562 3,-1.9523 0,-0.3904 1.10964,-1.3036 2.46587,-2.0294 1.35623,-0.7259 2.27602,-1.6269 2.04399,-2.0023 -0.23204,-0.3755 0.15832,-0.6827 0.86746,-0.6827 0.70914,0 1.28935,0.5803 1.28935,1.2894 0,0.7091 -0.375,1.0576 -0.83334,0.7743 -0.45833,-0.2833 -0.83333,-0.038 -0.83333,0.544 0,0.5825 0.47656,1.059 1.05902,1.059 0.58246,0 0.76194,0.4807 0.39885,1.0682 -0.3631,0.5875 -1.32726,0.8122 -2.14258,0.4993 -0.91848,-0.3524 -1.30797,-0.093 -1.02385,0.6818 0.25221,0.6879 1.04098,1.1128 1.75283,0.9443 1.05424,-0.2496 1.05641,-0.02 0.0117,1.239 -0.70542,0.85 -1.6505,1.318 -2.10018,1.0401 -0.44968,-0.2779 -1.10025,-0.048 -1.44571,0.511 -0.34546,0.559 0.0574,1.0163 0.89517,1.0163 1.16535,0 1.00298,0.5439 -0.69098,2.3145 -1.21785,1.273 -2.55177,2.1464 -2.96427,1.941 -0.4125,-0.2054 -0.75,0.3139 -0.75,1.1541 0,0.9471 0.57008,1.3089 1.5,0.952 0.825,-0.3165 1.5,-1.2024 1.5,-1.9686 0,-0.7661 0.9,-1.393 2,-1.393 1.11111,0 2,-0.6667 2,-1.5 0,-0.825 0.48142,-1.5 1.06982,-1.5 0.58841,0 3.17591,-1.4625 5.75,-3.25 4.99939,-3.4717 5.0183,-3.4834 13.86624,-8.6352 3.19767,-1.8618 6.03894,-3.6618 6.31394,-4 0.45054,-0.554 5.7256,-3.3467 26,-13.7649 3.575,-1.8371 6.86964,-3.3423 7.32143,-3.345 0.45178,0 1.50056,-0.684 2.33062,-1.5141 0.83005,-0.83 1.94262,-1.2413 2.47237,-0.9139 0.52976,0.3274 1.52481,0.1292 2.21124,-0.4405 3.82329,-3.173 44.66851,-14.6709 62.66434,-17.6399 8.38943,-1.3841 16.99657,-2.5786 23.5,-3.2615 9.4501,-0.9922 792.79992,-0.9441 798.50002,0.049 2.475,0.4312 8.55,1.2132 13.5,1.7377 4.95,0.5245 10.665,1.3567 12.6999,1.8493 2.035,0.4927 3.9475,0.6482 4.25,0.3457 0.3026,-0.3026 0.5501,-0.07 0.5501,0.5166 0,0.5866 1.62,1.0666 3.6,1.0666 1.98,0 4.095,0.495 4.7,1.1 1.4288,1.4288 3.0195,1.426 2.1359,0 -0.3752,-0.607 0.4983,-0.3303 1.941,0.615 1.4427,0.9454 2.6231,1.3723 2.6231,0.9488 0,-0.4235 0.7875,-0.072 1.75,0.78 1.5277,1.3532 7.2084,2.7635 12.4266,3.0852 0.9221,0.057 1.5135,0.3672 1.3142,0.6897 -0.1993,0.3225 1.6807,1.1896 4.1779,1.9269 2.4971,0.7373 6.2715,2.1771 8.3875,3.1994 2.1159,1.0223 4.5439,1.8588 5.3955,1.8588 0.8516,0 1.5483,0.375 1.5483,0.8333 0,0.4583 0.675,0.9083 1.5,1 0.825,0.092 2.175,0.2417 3,0.3333 0.825,0.092 1.5,0.5417 1.5,1 0,0.4584 0.4238,0.8334 0.9418,0.8334 1.3783,0 18.2983,8.0811 20.0582,9.5799 0.825,0.7027 1.95,1.3669 2.5,1.4761 1.8172,0.3609 3.9922,1.2884 4.5,1.919 1.1171,1.3873 10.1973,6.161 10.7216,5.6367 0.3106,-0.3106 -0.1748,-0.8484 -1.0785,-1.1952 -0.9807,-0.3763 -1.6148,-1.696 -1.5728,-3.2735 0.063,-2.3752 0.1574,-2.4403 0.9297,-0.643 0.756,1.7592 0.8679,1.6618 0.9297,-0.8091 0.05,-1.9922 -0.2932,-2.5906 -1.1797,-2.058 -0.8494,0.5103 -0.8101,0.2087 0.1224,-0.941 1.7869,-2.2028 4.1234,-2.17 4.1429,0.058 0.013,1.4678 0.1654,1.5128 0.9456,0.279 1.4754,-2.3329 2.0922,-0.7011 1.0754,2.8446 -1.2528,4.368 -0.5131,5.7931 3.0067,5.7931 3.3699,0 3.9447,-1.1751 0.957,-1.9564 -1.1,-0.2877 -2,-0.089 -2,0.4424 0,0.5309 -0.375,0.7336 -0.8333,0.4504 -1.3457,-0.8317 -0.081,-6.6031 1.4468,-6.6031 0.7626,0 1.3865,0.4766 1.3865,1.059 0,0.5825 -0.45,0.7809 -1,0.441 -1.5183,-0.9383 -1.1948,0.4481 0.5,2.1429 1.3333,1.3333 1.5,1.3188 1.5,-0.1305 0,-0.8967 0.3524,-1.4126 0.7831,-1.1464 0.4307,0.2662 0.7682,1.9406 0.75,3.7209 -0.029,2.8648 -0.3653,3.2516 -2.9225,3.3642 -1.5892,0.07 -3.473,-0.4564 -4.1863,-1.1696 -0.7931,-0.7931 -1.5314,-0.9172 -1.9009,-0.3194 -0.3322,0.5376 1.0441,1.666 3.0584,2.5077 3.6712,1.5339 7.2934,2.0721 6.1325,0.9112 -0.3405,-0.3405 -0.023,-1.2151 0.7054,-1.9436 0.7713,-0.7713 1.112,-2.4967 0.8157,-4.1309 -0.2866,-1.5806 -0.1271,-2.4481 0.3651,-1.9859 0.4807,0.4513 0.8797,1.5376 0.8867,2.4139 0.01,0.8763 0.6379,1.803 1.402,2.0592 0.8437,0.2829 1.115,0.022 0.691,-0.6639 -0.384,-0.6214 -0.2131,-1.1298 0.3798,-1.1298 0.6375,0 0.8329,0.9772 0.478,2.3909 -0.6575,2.6199 0.5732,3.8342 4.2877,4.2302 1.5536,0.1656 2.0778,-0.1414 1.6004,-0.9374 -0.4408,-0.7349 -0.091,-0.6822 0.9219,0.1389 0.8976,0.7275 1.7714,2.3025 1.942,3.5 0.1705,1.1976 0.985,2.2424 1.81,2.3219 3.4089,0.3284 6,1.6839 6,3.1388 0,0.8525 0.2837,1.2664 0.6304,0.9196 0.3467,-0.3467 3.1366,1.6033 6.1996,4.3334 3.0631,2.73 5.9294,4.9637 6.3696,4.9637 1.5397,0 0.7805,-2.1096 -1.5458,-4.2954 -8.4293,-7.9204 -17.2379,-14.7872 -17.996,-14.0291 -0.3618,0.3618 -0.6578,-0.076 -0.6578,-0.9736 0,-0.8973 -0.9842,-2.1582 -2.187,-2.802 -1.2029,-0.6437 -2.6654,-1.5684 -3.25,-2.0548 -5.768,-4.7988 -7.171,-5.8428 -7.8535,-5.8439 -0.7023,0 -6.4158,-3.7074 -7.7095,-5.0012 -0.275,-0.275 -1.2268,-0.95 -2.1151,-1.5 -0.8883,-0.55 -4.0383,-2.6096 -7,-4.5769 -2.9617,-1.9673 -7.3667,-4.6673 -9.789,-6 -2.4222,-1.3327 -5.2347,-3.2106 -6.25,-4.1731 -1.0152,-0.9625 -2.4084,-1.7501 -3.0959,-1.7502 -0.6875,-1e-4 -3.725,-1.3323 -6.75,-2.9603 -3.025,-1.6281 -6.0492,-2.978 -6.7204,-2.9998 -1.0762,-0.035 -4.0071,-1.249 -15.7796,-6.5363 -9.7705,-4.3881 -17.9346,-7.2117 -23.5,-8.1276 -1.925,-0.3168 -3.725,-0.938 -4,-1.3804 -0.275,-0.4424 -0.95,-0.867 -1.5,-0.9436 -2.6545,-0.3695 -6.2209,-1.2796 -8.2794,-2.1129 -4.5622,-1.8469 -32.9406,-7.1125 -41.2206,-7.6484 -4.675,-0.3027 -9.0192,-0.961 -9.6539,-1.463 -1.3527,-1.0702 -535.9929,-1.6361 -678.34612,-0.7181 -59.62548,0.3846 -96.89878,1.0055 -101,1.6827 -3.575,0.5903 -9.875,1.5241 -14,2.0752 -4.125,0.551 -8.4,1.2032 -9.5,1.4494 -1.1,0.2461 -4.025,0.7637 -6.5,1.15 -2.475,0.3864 -7.2,1.384 -10.5,2.2169 -3.3,0.8329 -6.75846,1.6634 -7.68547,1.8455 -3.80355,0.7474 -14.38421,3.831 -15.31453,4.4632 -0.55,0.3738 -3.7,1.4894 -7,2.4792 -3.3,0.9898 -7.125,2.3968 -8.5,3.1267 -1.375,0.7299 -7.14321,3.1901 -12.81824,5.4671 -5.67504,2.2769 -13.10004,5.6111 -16.5,7.4093 -3.39997,1.7982 -9.15517,4.8387 -12.78934,6.7568 -8.09368,4.2718 -21.27131,12.6983 -21.72575,13.8926 -0.18334,0.4818 -0.89584,0.876 -1.58334,0.876 -0.6875,0 -2.5625,1.3375 -4.16666,2.9722 -1.60417,1.6348 -3.38239,2.9848 -3.9516,3 -0.5692,0.015 -2.52368,1.8278 -4.34326,4.0278 -1.81959,2.2 -3.9555,4 -4.74646,4 -0.79097,0 -1.69714,0.675 -2.01372,1.5 -0.31659,0.825 -1.10218,1.5 -1.74576,1.5 -0.64358,0 -2.64821,1.35 -4.45473,3 -1.80652,1.65 -3.50226,3 -3.76831,3 -0.26606,0 -1.51933,1.0125 -2.78505,2.25 -1.26572,1.2375 -4.20043,3.9317 -6.52159,5.987 -2.52578,2.2366 -3.93056,4.2058 -3.49872,4.9045 0.44991,0.728 0.28692,0.8989 -0.43296,0.454 -0.63498,-0.3921 -1.15451,-0.2367 -1.15451,0.3458 0,0.5825 -0.70156,1.059 -1.55902,1.059 -0.85746,0 -1.27893,0.4532 -0.93661,1.0071 0.34231,0.5539 -0.19363,1.3049 -1.19099,1.6689 -2.00975,0.7335 -9.31338,8.1759 -9.31338,9.4904 0,0.4585 -0.675,0.8336 -1.5,0.8336 -0.825,0 -1.5,0.3555 -1.5,0.79 0,0.4346 -1.76094,2.7359 -3.9132,5.1141 -3.95399,4.3691 -5.98609,8.5843 -3.75811,7.7954 0.64422,-0.2281 1.10962,-1.149 1.03421,-2.0464 z m 23.6371,-16.5454 c 0,-0.6742 -0.45,-0.9476 -1,-0.6077 -0.55,0.3399 -1,-0.1101 -1,-1 0,-0.9479 -0.46789,-1.3289 -1.12973,-0.9198 -0.67345,0.4162 -0.95112,0.1624 -0.6875,-0.6285 0.77563,-2.3269 2.27915,-2.0166 3.55675,0.734 0.68173,1.4677 1.01923,2.8889 0.75,3.1581 -0.26924,0.2693 -0.48952,-0.062 -0.48952,-0.7361 z m 32.19682,-30.1077 c 0.2626,-3.4463 0.40977,-3.5363 2.44891,-1.4971 1.33716,1.3372 1.32992,1.5692 -0.0657,2.1048 -0.8627,0.331 -1.31958,1.0047 -1.01528,1.4971 0.3043,0.4924 0.0696,0.8952 -0.52163,0.8952 -0.59119,0 -0.97203,-1.35 -0.84631,-3 z m 3.88213,-3.5833 c 0.048,-1.165 0.28494,-1.4019 0.60416,-0.6042 0.28887,0.7219 0.25335,1.5844 -0.0789,1.9167 -0.33229,0.3323 -0.56864,-0.2584 -0.52522,-1.3125 z m 4.504,-2.2825 c -0.43077,-0.697 -0.51316,-1.5373 -0.18309,-1.8674 0.89497,-0.8949 1.87077,0.4213 1.38739,1.8715 -0.33872,1.0161 -0.57427,1.0153 -1.2043,0 z m 2.91705,-0.1342 c 0.33992,-0.55 0.81648,-1 1.05902,-1 0.24254,0 0.44098,0.45 0.44098,1 0,0.55 -0.47656,1 -1.05902,1 -0.58246,0 -0.7809,-0.45 -0.44098,-1 z m 1057.20192,-4.6315 c -0.3474,-0.3473 -0.1815,-1.4723 0.3685,-2.5 0.6881,-1.2858 0.6649,-1.8685 -0.075,-1.8685 -0.6635,0 -0.5813,-0.5337 0.2148,-1.395 0.7092,-0.7673 1.7172,-1.1349 2.2401,-0.8169 0.554,0.3368 0.4732,0.7373 -0.1938,0.9596 -0.6295,0.2098 -0.9141,0.9819 -0.6325,1.7158 0.2815,0.7338 0.024,1.6358 -0.5725,2.0045 -0.5965,0.3686 -0.8256,1.0891 -0.5092,1.6011 0.6535,1.0574 0.1105,1.2508 -0.8408,0.2994 z m -5.4913,-5.9065 c -1.6685,-1.8918 -0.1558,-1.8878 2.3483,0.01 1.4637,1.1071 1.5722,1.4666 0.4411,1.4619 -0.825,0 -2.0802,-0.6641 -2.7894,-1.4682 z m 6.5394,-3.574 c -2.5483,-1.4378 -2.18,-3.1549 0.5,-2.3311 2.9535,0.9078 3.3035,1.2921 2.1833,2.3975 -0.5691,0.5616 -1.6162,0.5357 -2.6833,-0.066 z m -10.147,-5.7213 c -0.2833,-0.4584 0.1204,-0.8334 0.897,-0.8334 0.7766,0 1.1803,0.375 0.897,0.8334 -0.2833,0.4583 -0.6869,0.8333 -0.897,0.8333 -0.2101,0 -0.6137,-0.375 -0.897,-0.8333 z m -1015.26969,-5.6667 c 0,-0.825 0.6551,-1.5 1.45578,-1.5 1.18064,0 1.2205,0.2835 0.21089,1.5 -0.68469,0.825 -1.33979,1.5 -1.45578,1.5 -0.11599,0 -0.21089,-0.675 -0.21089,-1.5 z m 980.16669,-2.5 c -0.3399,-0.55 0.083,-1 0.941,-1 0.8574,0 1.559,0.45 1.559,1 0,0.55 -0.4234,1 -0.941,1 -0.5175,0 -1.2191,-0.45 -1.559,-1 z m 111.1193,74.5284 c -3.6483,-3.6483 -4.3178,-3.1105 -0.9678,0.7775 1.5667,1.8182 2.9942,2.956 3.1724,2.5284 0.1781,-0.4276 -0.814,-1.9153 -2.2046,-3.3059 z m 10.1607,-0.5091 c -1.4512,-2.3238 -3.4873,-3.3019 -4.2625,-2.0476 -0.3006,0.4864 0.36,1.172 1.468,1.5237 1.108,0.3517 2.0145,1.0591 2.0145,1.572 0,0.5129 0.4538,0.9326 1.0085,0.9326 0.601,0 0.5087,-0.8002 -0.2285,-1.9807 z m -5.3086,-5.7622 c -1.0843,-0.9664 -2.717,-2.6356 -3.6282,-3.7093 -1.617,-1.9052 -1.653,-1.8903 -1.5,0.6225 0.1085,1.7813 0.5954,2.4063 1.5804,2.0285 0.948,-0.3636 1.2359,-0.057 0.8615,0.9187 -0.3952,1.0299 0.2128,1.5289 2.0478,1.6808 2.5683,0.2125 2.5785,0.1879 0.6385,-1.5412 z m -11.1098,-0.7571 c -0.6271,-1.6343 -2.3616,-2.0627 -2.3616,-0.5833 0,0.759 0.7008,1.2757 2.7186,2.0044 0.1203,0.043 -0.04,-0.5961 -0.357,-1.4211 z m 2.7625,-7.7667 c -0.9876,-0.9802 -1.1025,-0.8654 -0.5598,0.5598 0.3755,0.9863 0.9347,1.5413 1.2426,1.2334 0.3079,-0.3079 6e-4,-1.1148 -0.6828,-1.7932 z m -17.7625,-4.2333 c -0.3166,-0.825 -1.0325,-1.5 -1.591,-1.5 -0.5853,0 -0.4881,0.6354 0.2294,1.5 0.6847,0.825 1.4007,1.5 1.5911,1.5 0.1904,0 0.087,-0.675 -0.2295,-1.5 z m 14,0 c -0.3166,-0.825 -0.7524,-1.5 -0.9686,-1.5 -0.2161,0 -0.393,0.675 -0.393,1.5 0,0.825 0.4359,1.5 0.9686,1.5 0.5328,0 0.7096,-0.675 0.393,-1.5 z m -3.3817,-3.0242 c -0.6957,-0.8382 -1.4708,-1.3182 -1.7225,-1.0665 -0.6935,0.6935 0.7155,2.5907 1.9241,2.5907 0.6631,0 0.5872,-0.5738 -0.2016,-1.5242 z m -16.0913,-2.4289 c -2.7013,-2.3586 -3.1313,-3.2042 -2.1355,-4.2 0.7946,-0.7946 1.2469,-0.8539 1.2469,-0.1635 0,0.5958 0.9,1.3187 2,1.6064 2.4448,0.6393 2.7971,-2.3833 0.5,-4.2898 -0.9056,-0.7516 -1.5,-0.8331 -1.5,-0.2058 0,0.5715 0.5625,1.24 1.25,1.4856 0.6875,0.2455 0.9661,0.7544 0.619,1.1309 -0.347,0.3765 -1.3595,-0.044 -2.25,-0.9345 -0.8904,-0.8905 -1.619,-1.1894 -1.619,-0.6642 0,0.5251 -0.9,1.1901 -2,1.4778 -2.3986,0.6272 -2.586,-0.561 -0.4286,-2.7184 0.8643,-0.8642 1.1223,-1.5714 0.5734,-1.5714 -0.549,0 -1.2039,-0.7875 -1.4555,-1.75 -0.3659,-1.4002 -0.4805,-1.328 -0.5733,0.3613 -0.091,1.6585 -0.6219,2.0147 -2.4746,1.6605 -3.7213,-0.7114 -4.2114,2.3821 -0.6677,4.2146 1.5977,0.8262 3.5016,2.2923 4.2308,3.2579 1.5984,2.1165 4.7819,4.1163 6.681,4.1969 0.762,0.032 -0.1365,-1.2701 -1.9969,-2.8943 z m -1119.88862,-0.047 c 0,-0.55 -0.4132,-1 -0.91821,-1 -0.50502,0 -1.63002,-0.2731 -2.5,-0.607 -0.86999,-0.3338 -1.58179,-0.1418 -1.58179,0.4267 0,0.8936 1.55088,1.6468 4.25,2.0643 0.4125,0.064 0.75,-0.334 0.75,-0.884 z m 3,-7 c 0,-0.55 -0.19844,-1 -0.44098,-1 -0.24254,0 -0.7191,0.45 -1.05902,1 -0.33992,0.55 -0.14148,1 0.44098,1 0.58246,0 1.05902,-0.45 1.05902,-1 z m 1105.67072,-2.5279 c 1.9984,-1.9983 -0.1043,-5.1871 -2.2474,-3.4084 -0.9881,0.82 -1.6311,0.5765 -2.6079,-0.9877 -1.571,-2.5156 -2.3944,-2.6156 -3.2468,-0.3942 -0.4341,1.1313 0.2674,2.4289 2.143,3.9641 3.3341,2.7288 3.9686,2.8168 5.9591,0.8262 z m -4.4727,-1.0034 c 0.9942,-0.9942 4.8598,-1.3712 4.2697,-0.4164 -0.3222,0.5212 -1.5342,0.9477 -2.6934,0.9477 -1.1592,0 -1.8685,-0.2391 -1.5763,-0.5313 z m -3.447,-6.4416 c 1.7422,-2.7896 -0.256,-3.5616 -3.2081,-1.2395 -1.7305,1.3612 -2.1275,2.2278 -1.3685,2.9868 1.3596,1.3596 3.0361,0.7195 4.5766,-1.7473 z m 9.249,1.9729 c 0,-0.55 -0.45,-1 -1,-1 -0.55,0 -1,0.45 -1,1 0,0.55 0.45,1 1,1 0.55,0 1,-0.45 1,-1 z m -21.9267,-12 c 0.5097,0 0.9267,-0.4765 0.9267,-1.059 0,-0.5825 -0.4116,-0.8047 -0.9146,-0.4938 -0.503,0.3109 -1.1048,0 -1.3372,-0.691 -0.2324,-0.6909 -0.43,0.3188 -0.4389,2.2438 -0.01,1.925 0.1757,2.7125 0.4105,1.75 0.2348,-0.9625 0.8439,-1.75 1.3535,-1.75 z"
       id="path1" />
  </g>
</svg>
